<svg xmlns="http://www.w3.org/2000/svg" version="1.1" xmlns:xlink="http://www.w3.org/1999/xlink" xmlns:svgjs="http://svgjs.dev/svgjs" width="2400" height="1200" preserveAspectRatio="none" viewBox="0 0 2400 1200"><g mask="url(&quot;#SvgjsMask3759&quot;)" fill="none"><rect width="2400" height="1200" x="0" y="0" fill="url(&quot;#SvgjsLinearGradient3760&quot;)"></rect><g mask="url(&quot;#SvgjsMask3762&quot;)"><path d="M2124 636L2100 612L2076 612L2052 612L2028 612M2292 636L2268 612M2244 636L2220 612L2196 612M2268 636L2244 660L2220 660L2196 660M2436 612L2412 612L2388 612L2364 612L2340 612L2316 612L2292 636L2268 636L2244 636L2220 636L2196 636L2172 636L2148 636L2124 636L2100 636L2076 636L2052 636" stroke="url(&quot;#SvgjsLinearGradient3761&quot;)" stroke-width="4"></path><path d="M2046 636 a6 6 0 1 0 12 0 a6 6 0 1 0 -12 0zM2022 612 a6 6 0 1 0 12 0 a6 6 0 1 0 -12 0zM2262 612 a6 6 0 1 0 12 0 a6 6 0 1 0 -12 0zM2190 612 a6 6 0 1 0 12 0 a6 6 0 1 0 -12 0zM2190 660 a6 6 0 1 0 12 0 a6 6 0 1 0 -12 0z" fill="url(&quot;#SvgjsLinearGradient3761&quot;)"></path><path d="M2436 588L2412 588L2388 588L2364 588L2340 588L2316 588L2292 588L2268 588" stroke="url(&quot;#SvgjsLinearGradient3761&quot;)" stroke-width="4"></path><path d="M2262 588 a6 6 0 1 0 12 0 a6 6 0 1 0 -12 0z" fill="url(&quot;#SvgjsLinearGradient3761&quot;)"></path><path d="M2436 636L2412 636L2388 636L2364 636L2340 636L2316 636L2292 660" stroke="url(&quot;#SvgjsLinearGradient3761&quot;)" stroke-width="4"></path><path d="M2286 660 a6 6 0 1 0 12 0 a6 6 0 1 0 -12 0z" fill="url(&quot;#SvgjsLinearGradient3761&quot;)"></path><path d="M1644 564L1620 588L1596 588L1572 588M1092 564L1068 588M2124 564L2100 540L2076 540L2052 540M1404 564L1380 540L1356 540L1332 516M2076 564L2052 588L2028 588L2004 588L1980 588L1956 588L1932 588L1908 588L1884 588M1836 564L1812 540L1788 540L1764 540M1188 588L1164 564M1956 564L1932 540L1908 540L1884 540L1860 540L1836 540L1812 516L1788 516L1764 516L1740 516L1716 516L1692 516L1668 516L1644 516L1620 516L1596 516L1572 516L1548 516L1524 516M2100 564L2076 588M1740 564L1716 588L1692 588L1668 588L1644 588L1620 612L1596 612L1572 612L1548 612L1524 612L1500 636L1476 636L1452 636L1428 636L1404 636L1380 660L1356 660L1332 660L1308 660L1284 660M1164 588L1140 588L1116 588L1092 588M1452 564L1428 588L1404 588L1380 588L1356 588L1332 588L1308 588M2004 564L1980 540L1956 540L1932 516L1908 516L1884 516L1860 516L1836 516L1812 492L1788 492L1764 492L1740 492L1716 492L1692 492L1668 492L1644 492L1620 468M2028 564L2004 540L1980 516M1260 564L1236 540M2436 564L2412 564L2388 564L2364 564L2340 564L2316 564L2292 564L2268 564L2244 564L2220 564L2196 564L2172 564L2148 564L2124 564L2100 564L2076 564L2052 564L2028 564L2004 564L1980 564L1956 564L1932 564L1908 564L1884 564L1860 564L1836 564L1812 564L1788 564L1764 564L1740 564L1716 564L1692 564L1668 564L1644 564L1620 564L1596 564L1572 564L1548 564L1524 564L1500 564L1476 564L1452 564L1428 564L1404 564L1380 564L1356 564L1332 564L1308 564L1284 564L1260 564L1236 564L1212 564L1188 588L1164 588L1140 564L1116 564L1092 564L1068 564L1044 564L1020 564L996 564" stroke="url(&quot;#SvgjsLinearGradient3761&quot;)" stroke-width="4"></path><path d="M990 564 a6 6 0 1 0 12 0 a6 6 0 1 0 -12 0zM1566 588 a6 6 0 1 0 12 0 a6 6 0 1 0 -12 0zM1062 588 a6 6 0 1 0 12 0 a6 6 0 1 0 -12 0zM2046 540 a6 6 0 1 0 12 0 a6 6 0 1 0 -12 0zM1326 516 a6 6 0 1 0 12 0 a6 6 0 1 0 -12 0zM1878 588 a6 6 0 1 0 12 0 a6 6 0 1 0 -12 0zM1758 540 a6 6 0 1 0 12 0 a6 6 0 1 0 -12 0zM1158 564 a6 6 0 1 0 12 0 a6 6 0 1 0 -12 0zM1518 516 a6 6 0 1 0 12 0 a6 6 0 1 0 -12 0zM2070 588 a6 6 0 1 0 12 0 a6 6 0 1 0 -12 0zM1278 660 a6 6 0 1 0 12 0 a6 6 0 1 0 -12 0zM1086 588 a6 6 0 1 0 12 0 a6 6 0 1 0 -12 0zM1302 588 a6 6 0 1 0 12 0 a6 6 0 1 0 -12 0zM1614 468 a6 6 0 1 0 12 0 a6 6 0 1 0 -12 0zM1974 516 a6 6 0 1 0 12 0 a6 6 0 1 0 -12 0zM1230 540 a6 6 0 1 0 12 0 a6 6 0 1 0 -12 0z" fill="url(&quot;#SvgjsLinearGradient3761&quot;)"></path><path d="M2076 684L2052 660L2028 660M2124 684L2100 660L2076 660M2172 684L2148 660L2124 660M2004 684L1980 660L1956 660L1932 660M2436 660L2412 660L2388 660L2364 660L2340 660L2316 660L2292 684L2268 684L2244 684L2220 684L2196 684L2172 684L2148 684L2124 684L2100 684L2076 684L2052 684L2028 684L2004 684L1980 684" stroke="url(&quot;#SvgjsLinearGradient3761&quot;)" stroke-width="4"></path><path d="M1974 684 a6 6 0 1 0 12 0 a6 6 0 1 0 -12 0zM2022 660 a6 6 0 1 0 12 0 a6 6 0 1 0 -12 0zM2070 660 a6 6 0 1 0 12 0 a6 6 0 1 0 -12 0zM2118 660 a6 6 0 1 0 12 0 a6 6 0 1 0 -12 0zM1926 660 a6 6 0 1 0 12 0 a6 6 0 1 0 -12 0z" fill="url(&quot;#SvgjsLinearGradient3761&quot;)"></path><path d="M1812 468L1788 444L1764 444L1740 444M1236 468L1212 444L1188 420L1164 420M1644 444L1620 420L1596 420M2028 468L2004 444L1980 444M2244 540L2220 516L2196 516M1668 444L1644 468M1860 468L1836 492M2148 540L2124 540M2076 492L2052 492M1404 444L1380 420L1356 420L1332 444L1308 444L1284 444L1260 444M1500 468L1476 444L1452 420L1428 420L1404 420L1380 396L1356 396L1332 420M2316 540L2292 516L2268 492L2244 492L2220 492L2196 492L2172 492L2148 516M1932 468L1908 444L1884 444M2436 540L2412 540L2388 540L2364 540L2340 540L2316 540L2292 540L2268 540L2244 540L2220 540L2196 540L2172 540L2148 540L2124 516L2100 492L2076 492L2052 468L2028 468L2004 468L1980 468L1956 468L1932 468L1908 468L1884 468L1860 468L1836 468L1812 468L1788 468L1764 468L1740 468L1716 444L1692 444L1668 444L1644 444L1620 444L1596 444L1572 468L1548 468L1524 468L1500 468L1476 468L1452 444L1428 444L1404 444L1380 444L1356 468L1332 468L1308 468L1284 468L1260 468L1236 468L1212 468L1188 444" stroke="url(&quot;#SvgjsLinearGradient3761&quot;)" stroke-width="4"></path><path d="M1182 444 a6 6 0 1 0 12 0 a6 6 0 1 0 -12 0zM1734 444 a6 6 0 1 0 12 0 a6 6 0 1 0 -12 0zM1158 420 a6 6 0 1 0 12 0 a6 6 0 1 0 -12 0zM1590 420 a6 6 0 1 0 12 0 a6 6 0 1 0 -12 0zM1974 444 a6 6 0 1 0 12 0 a6 6 0 1 0 -12 0zM2190 516 a6 6 0 1 0 12 0 a6 6 0 1 0 -12 0zM1638 468 a6 6 0 1 0 12 0 a6 6 0 1 0 -12 0zM1830 492 a6 6 0 1 0 12 0 a6 6 0 1 0 -12 0zM2118 540 a6 6 0 1 0 12 0 a6 6 0 1 0 -12 0zM2046 492 a6 6 0 1 0 12 0 a6 6 0 1 0 -12 0zM1254 444 a6 6 0 1 0 12 0 a6 6 0 1 0 -12 0zM1326 420 a6 6 0 1 0 12 0 a6 6 0 1 0 -12 0zM2142 516 a6 6 0 1 0 12 0 a6 6 0 1 0 -12 0zM1878 444 a6 6 0 1 0 12 0 a6 6 0 1 0 -12 0z" fill="url(&quot;#SvgjsLinearGradient3761&quot;)"></path><path d="M1908 732L1884 708L1860 708L1836 708M1668 684L1644 708L1620 708L1596 708L1572 708L1548 708L1524 708M2388 684L2364 708L2340 708L2316 708M1644 684L1620 684L1596 684L1572 684L1548 660L1524 636M1692 660L1668 660L1644 660L1620 636M1740 684L1716 684L1692 684L1668 708L1644 732L1620 732L1596 732L1572 732L1548 732M2412 684L2388 708M1764 708L1740 708L1716 708L1692 708L1668 732L1644 756L1620 756L1596 780L1572 780L1548 756M1836 732L1812 756L1788 756L1764 756M2436 684L2412 684L2388 684L2364 684L2340 684L2316 684L2292 708L2268 708L2244 708L2220 708L2196 708L2172 708L2148 708L2124 708L2100 708L2076 708L2052 708L2028 708L2004 708L1980 708L1956 708L1932 708L1908 732L1884 732L1860 732L1836 732L1812 732L1788 732L1764 708L1740 684L1716 660L1692 660L1668 684L1644 684L1620 660L1596 660L1572 660" stroke="url(&quot;#SvgjsLinearGradient3761&quot;)" stroke-width="4"></path><path d="M1566 660 a6 6 0 1 0 12 0 a6 6 0 1 0 -12 0zM1830 708 a6 6 0 1 0 12 0 a6 6 0 1 0 -12 0zM1518 708 a6 6 0 1 0 12 0 a6 6 0 1 0 -12 0zM2310 708 a6 6 0 1 0 12 0 a6 6 0 1 0 -12 0zM1518 636 a6 6 0 1 0 12 0 a6 6 0 1 0 -12 0zM1614 636 a6 6 0 1 0 12 0 a6 6 0 1 0 -12 0zM1542 732 a6 6 0 1 0 12 0 a6 6 0 1 0 -12 0zM2382 708 a6 6 0 1 0 12 0 a6 6 0 1 0 -12 0zM1542 756 a6 6 0 1 0 12 0 a6 6 0 1 0 -12 0zM1758 756 a6 6 0 1 0 12 0 a6 6 0 1 0 -12 0z" fill="url(&quot;#SvgjsLinearGradient3761&quot;)"></path><path d="M1212 324L1188 324L1164 324L1140 348L1116 348M1908 372L1884 372L1860 372L1836 372M876 324L852 348L828 372L804 372L780 372L756 372L732 372L708 372L684 372L660 372M1956 396L1932 420L1908 420L1884 420L1860 420L1836 420L1812 420L1788 420L1764 420L1740 420L1716 420L1692 420M1980 420L1956 420L1932 444M996 324L972 300L948 300L924 300L900 300L876 300L852 300L828 276L804 276L780 276L756 276L732 276L708 276M1596 372L1572 396L1548 396L1524 396L1500 396L1476 396L1452 396L1428 396M1812 372L1788 396L1764 396L1740 396M1620 372L1596 396M2364 516L2340 516L2316 516L2292 492M1452 348L1428 372L1404 372L1380 372L1356 348L1332 348L1308 348L1284 348L1260 348L1236 348L1212 348L1188 348L1164 372L1140 372L1116 372L1092 372L1068 372L1044 372M1356 324L1332 300L1308 300L1284 300L1260 300L1236 300L1212 300L1188 276L1164 276L1140 276M1476 348L1452 324L1428 324L1404 324L1380 300L1356 300M852 324L828 324L804 324L780 324L756 324L732 324L708 324L684 324L660 324M2100 468L2076 444M1716 372L1692 396L1668 396L1644 396L1620 396M1020 324L996 300L972 276L948 276L924 276L900 276L876 276L852 276M1668 372L1644 348L1620 348L1596 348L1572 348M2436 516L2412 516L2388 516L2364 516L2340 492L2316 468L2292 468L2268 468L2244 468L2220 468L2196 468L2172 468L2148 468L2124 468L2100 468L2076 468L2052 444L2028 420L2004 420L1980 420L1956 396L1932 372L1908 372L1884 396L1860 396L1836 396L1812 372L1788 372L1764 372L1740 372L1716 372L1692 372L1668 372L1644 372L1620 372L1596 372L1572 372L1548 372L1524 372L1500 348L1476 348L1452 348L1428 348L1404 348L1380 324L1356 324L1332 324L1308 324L1284 324L1260 324L1236 324L1212 324L1188 300L1164 300L1140 324L1116 324L1092 324L1068 324L1044 324L1020 324L996 324L972 324L948 324L924 324L900 324L876 324L852 324L828 300L804 300L780 300L756 300L732 300" stroke="url(&quot;#SvgjsLinearGradient3761&quot;)" stroke-width="4"></path><path d="M726 300 a6 6 0 1 0 12 0 a6 6 0 1 0 -12 0zM1110 348 a6 6 0 1 0 12 0 a6 6 0 1 0 -12 0zM1830 372 a6 6 0 1 0 12 0 a6 6 0 1 0 -12 0zM654 372 a6 6 0 1 0 12 0 a6 6 0 1 0 -12 0zM1686 420 a6 6 0 1 0 12 0 a6 6 0 1 0 -12 0zM1926 444 a6 6 0 1 0 12 0 a6 6 0 1 0 -12 0zM702 276 a6 6 0 1 0 12 0 a6 6 0 1 0 -12 0zM1422 396 a6 6 0 1 0 12 0 a6 6 0 1 0 -12 0zM1734 396 a6 6 0 1 0 12 0 a6 6 0 1 0 -12 0zM1590 396 a6 6 0 1 0 12 0 a6 6 0 1 0 -12 0zM2286 492 a6 6 0 1 0 12 0 a6 6 0 1 0 -12 0zM1038 372 a6 6 0 1 0 12 0 a6 6 0 1 0 -12 0zM1134 276 a6 6 0 1 0 12 0 a6 6 0 1 0 -12 0zM1350 300 a6 6 0 1 0 12 0 a6 6 0 1 0 -12 0zM654 324 a6 6 0 1 0 12 0 a6 6 0 1 0 -12 0zM2070 444 a6 6 0 1 0 12 0 a6 6 0 1 0 -12 0zM1614 396 a6 6 0 1 0 12 0 a6 6 0 1 0 -12 0zM846 276 a6 6 0 1 0 12 0 a6 6 0 1 0 -12 0zM1566 348 a6 6 0 1 0 12 0 a6 6 0 1 0 -12 0z" fill="url(&quot;#SvgjsLinearGradient3761&quot;)"></path><path d="M1476 804L1452 780L1428 780L1404 780L1380 780L1356 780L1332 780M1860 780L1836 756M1668 780L1644 780L1620 780M1548 804L1524 780L1500 780L1476 756L1452 756L1428 756L1404 756L1380 756L1356 756L1332 756L1308 756L1284 732M1716 780L1692 804L1668 804L1644 828L1620 828L1596 828L1572 828L1548 828L1524 828L1500 828L1476 828L1452 828L1428 852L1404 852M1836 780L1812 804L1788 804L1764 804L1740 804L1716 804L1692 828L1668 828M2292 732L2268 756L2244 756L2220 756L2196 756L2172 756L2148 756L2124 756L2100 756L2076 756L2052 756L2028 756L2004 756L1980 756L1956 756L1932 756M2388 732L2364 756L2340 756L2316 756L2292 756M1884 756L1860 756M1308 852L1284 876L1260 900L1236 900L1212 876M1284 852L1260 828L1236 828M1356 804L1332 804L1308 780L1284 780L1260 780L1236 756L1212 756L1188 780L1164 804L1140 804L1116 804L1092 804L1068 804L1044 804M1908 756L1884 780L1860 804L1836 804L1812 828L1788 828L1764 828L1740 828L1716 828L1692 852L1668 852L1644 852L1620 852L1596 852L1572 852M2436 708L2412 732L2388 732L2364 732L2340 732L2316 732L2292 732L2268 732L2244 732L2220 732L2196 732L2172 732L2148 732L2124 732L2100 732L2076 732L2052 732L2028 732L2004 732L1980 732L1956 732L1932 732L1908 756L1884 756L1860 780L1836 780L1812 780L1788 780L1764 780L1740 780L1716 780L1692 780L1668 780L1644 804L1620 804L1596 804L1572 804L1548 804L1524 804L1500 804L1476 804L1452 804L1428 804L1404 804L1380 804L1356 804L1332 828L1308 852L1284 852L1260 852L1236 852L1212 852" stroke="url(&quot;#SvgjsLinearGradient3761&quot;)" stroke-width="4"></path><path d="M1206 852 a6 6 0 1 0 12 0 a6 6 0 1 0 -12 0zM1326 780 a6 6 0 1 0 12 0 a6 6 0 1 0 -12 0zM1830 756 a6 6 0 1 0 12 0 a6 6 0 1 0 -12 0zM1614 780 a6 6 0 1 0 12 0 a6 6 0 1 0 -12 0zM1278 732 a6 6 0 1 0 12 0 a6 6 0 1 0 -12 0zM1398 852 a6 6 0 1 0 12 0 a6 6 0 1 0 -12 0zM1662 828 a6 6 0 1 0 12 0 a6 6 0 1 0 -12 0zM1926 756 a6 6 0 1 0 12 0 a6 6 0 1 0 -12 0zM2286 756 a6 6 0 1 0 12 0 a6 6 0 1 0 -12 0zM1854 756 a6 6 0 1 0 12 0 a6 6 0 1 0 -12 0zM1206 876 a6 6 0 1 0 12 0 a6 6 0 1 0 -12 0zM1230 828 a6 6 0 1 0 12 0 a6 6 0 1 0 -12 0zM1038 804 a6 6 0 1 0 12 0 a6 6 0 1 0 -12 0zM1566 852 a6 6 0 1 0 12 0 a6 6 0 1 0 -12 0z" fill="url(&quot;#SvgjsLinearGradient3761&quot;)"></path><path d="M2436 492L2412 492L2388 492L2364 492L2340 468L2316 444L2292 444L2268 444L2244 444L2220 444L2196 444L2172 444" stroke="url(&quot;#SvgjsLinearGradient3761&quot;)" stroke-width="4"></path><path d="M2166 444 a6 6 0 1 0 12 0 a6 6 0 1 0 -12 0z" fill="url(&quot;#SvgjsLinearGradient3761&quot;)"></path><path d="M2124 420L2100 444M2148 420L2124 444M2436 468L2412 468L2388 468L2364 468L2340 444L2316 420L2292 420L2268 420L2244 420L2220 420L2196 420L2172 420L2148 420L2124 420L2100 420L2076 420L2052 420" stroke="url(&quot;#SvgjsLinearGradient3761&quot;)" stroke-width="4"></path><path d="M2046 420 a6 6 0 1 0 12 0 a6 6 0 1 0 -12 0zM2094 444 a6 6 0 1 0 12 0 a6 6 0 1 0 -12 0zM2118 444 a6 6 0 1 0 12 0 a6 6 0 1 0 -12 0z" fill="url(&quot;#SvgjsLinearGradient3761&quot;)"></path><path d="M2100 780L2076 804L2052 828M1980 828L1956 828L1932 828L1908 828L1884 828M1764 876L1740 852L1716 852M2004 828L1980 804L1956 804L1932 804M2028 804L2004 804L1980 780L1956 780L1932 780L1908 780L1884 804M1908 876L1884 852M1836 876L1812 852M2124 780L2100 804M2436 756L2412 756L2388 780L2364 780L2340 780L2316 780L2292 780L2268 780L2244 780L2220 780L2196 780L2172 780L2148 780L2124 780L2100 780L2076 780L2052 804L2028 804L2004 828L1980 828L1956 852L1932 852L1908 876L1884 876L1860 876L1836 876L1812 876L1788 876L1764 876L1740 876L1716 876L1692 876" stroke="url(&quot;#SvgjsLinearGradient3761&quot;)" stroke-width="4"></path><path d="M1686 876 a6 6 0 1 0 12 0 a6 6 0 1 0 -12 0zM2046 828 a6 6 0 1 0 12 0 a6 6 0 1 0 -12 0zM1878 828 a6 6 0 1 0 12 0 a6 6 0 1 0 -12 0zM1710 852 a6 6 0 1 0 12 0 a6 6 0 1 0 -12 0zM1926 804 a6 6 0 1 0 12 0 a6 6 0 1 0 -12 0zM1878 804 a6 6 0 1 0 12 0 a6 6 0 1 0 -12 0zM1878 852 a6 6 0 1 0 12 0 a6 6 0 1 0 -12 0zM1806 852 a6 6 0 1 0 12 0 a6 6 0 1 0 -12 0zM2094 804 a6 6 0 1 0 12 0 a6 6 0 1 0 -12 0z" fill="url(&quot;#SvgjsLinearGradient3761&quot;)"></path><path d="M2004 396L1980 372M1092 204L1068 228L1044 228L1020 228L996 228L972 228L948 228L924 228L900 252M2148 396L2124 372L2100 372L2076 372L2052 372M804 228L780 252L756 252L732 228L708 228L684 252L660 252M1044 180L1020 204M1428 276L1404 300M996 204L972 180L948 180L924 180L900 180L876 204L852 204L828 204L804 204L780 204M1260 252L1236 252L1212 276M1692 324L1668 324L1644 324M924 204L900 204M900 228L876 228M1452 300L1428 300M2172 396L2148 372M1524 300L1500 324L1476 324M2220 396L2196 372L2172 372M828 228L804 252M1716 348L1692 348L1668 348M2436 444L2412 444L2388 444L2364 444L2340 420L2316 396L2292 396L2268 396L2244 396L2220 396L2196 396L2172 396L2148 396L2124 396L2100 396L2076 396L2052 396L2028 396L2004 396L1980 396L1956 372L1932 348L1908 348L1884 348L1860 348L1836 348L1812 348L1788 348L1764 348L1740 348L1716 348L1692 324L1668 300L1644 300L1620 300L1596 300L1572 300L1548 300L1524 300L1500 300L1476 300L1452 300L1428 276L1404 276L1380 276L1356 276L1332 276L1308 252L1284 252L1260 252L1236 228L1212 228L1188 228L1164 228L1140 228L1116 228L1092 204L1068 204L1044 180L1020 180L996 204L972 204L948 204L924 204L900 228L876 252L852 252L828 228L804 228L780 228L756 228" stroke="url(&quot;#SvgjsLinearGradient3761&quot;)" stroke-width="4"></path><path d="M750 228 a6 6 0 1 0 12 0 a6 6 0 1 0 -12 0zM1974 372 a6 6 0 1 0 12 0 a6 6 0 1 0 -12 0zM894 252 a6 6 0 1 0 12 0 a6 6 0 1 0 -12 0zM2046 372 a6 6 0 1 0 12 0 a6 6 0 1 0 -12 0zM654 252 a6 6 0 1 0 12 0 a6 6 0 1 0 -12 0zM1014 204 a6 6 0 1 0 12 0 a6 6 0 1 0 -12 0zM1398 300 a6 6 0 1 0 12 0 a6 6 0 1 0 -12 0zM774 204 a6 6 0 1 0 12 0 a6 6 0 1 0 -12 0zM1206 276 a6 6 0 1 0 12 0 a6 6 0 1 0 -12 0zM1638 324 a6 6 0 1 0 12 0 a6 6 0 1 0 -12 0zM894 204 a6 6 0 1 0 12 0 a6 6 0 1 0 -12 0zM870 228 a6 6 0 1 0 12 0 a6 6 0 1 0 -12 0zM1422 300 a6 6 0 1 0 12 0 a6 6 0 1 0 -12 0zM2142 372 a6 6 0 1 0 12 0 a6 6 0 1 0 -12 0zM1470 324 a6 6 0 1 0 12 0 a6 6 0 1 0 -12 0zM2166 372 a6 6 0 1 0 12 0 a6 6 0 1 0 -12 0zM798 252 a6 6 0 1 0 12 0 a6 6 0 1 0 -12 0zM1662 348 a6 6 0 1 0 12 0 a6 6 0 1 0 -12 0z" fill="url(&quot;#SvgjsLinearGradient3761&quot;)"></path><path d="M2436 780L2412 780L2388 804L2364 804L2340 804L2316 804L2292 804L2268 804L2244 804L2220 804L2196 804L2172 804" stroke="url(&quot;#SvgjsLinearGradient3761&quot;)" stroke-width="4"></path><path d="M2166 804 a6 6 0 1 0 12 0 a6 6 0 1 0 -12 0z" fill="url(&quot;#SvgjsLinearGradient3761&quot;)"></path><path d="M1164 204L1140 180L1116 180M2268 348L2244 372L2220 372M2052 348L2028 324L2004 324L1980 324L1956 324M2172 348L2148 324M2028 348L2004 372M2292 372L2268 372M2436 420L2412 420L2388 420L2364 420L2340 396L2316 372L2292 372L2268 348L2244 348L2220 348L2196 348L2172 348L2148 348L2124 348L2100 348L2076 348L2052 348L2028 348L2004 348L1980 348L1956 348L1932 324L1908 324L1884 324L1860 324L1836 324L1812 324L1788 324L1764 324L1740 324L1716 324L1692 300L1668 276L1644 276L1620 276L1596 276L1572 276L1548 276L1524 276L1500 276L1476 276L1452 252L1428 252L1404 252L1380 252L1356 252L1332 252L1308 228L1284 228L1260 228L1236 204L1212 204L1188 204L1164 204L1140 204L1116 204L1092 180" stroke="url(&quot;#SvgjsLinearGradient3761&quot;)" stroke-width="4"></path><path d="M1086 180 a6 6 0 1 0 12 0 a6 6 0 1 0 -12 0zM1110 180 a6 6 0 1 0 12 0 a6 6 0 1 0 -12 0zM2214 372 a6 6 0 1 0 12 0 a6 6 0 1 0 -12 0zM1950 324 a6 6 0 1 0 12 0 a6 6 0 1 0 -12 0zM2142 324 a6 6 0 1 0 12 0 a6 6 0 1 0 -12 0zM1998 372 a6 6 0 1 0 12 0 a6 6 0 1 0 -12 0zM2262 372 a6 6 0 1 0 12 0 a6 6 0 1 0 -12 0z" fill="url(&quot;#SvgjsLinearGradient3761&quot;)"></path><path d="M1572 900L1548 924L1524 924M1188 900L1164 876L1140 876L1116 876M1164 900L1140 924L1116 948M1116 924L1092 900L1068 900L1044 900L1020 900M1092 924L1068 948L1044 948L1020 948L996 948L972 948L948 948L924 972L900 972L876 948L852 948L828 948L804 948L780 948L756 948L732 948L708 948L684 948L660 948M1596 900L1572 876L1548 876L1524 876L1500 876M900 924L876 900L852 900L828 900L804 900L780 900L756 900L732 900L708 900L684 900L660 900M1236 924L1212 924L1188 948L1164 948L1140 948L1116 972L1092 972L1068 972L1044 972L1020 972M2100 828L2076 828M1332 948L1308 924M1812 900L1788 924L1764 924L1740 924L1716 924M1668 900L1644 924L1620 924L1596 924L1572 924L1548 948M1356 948L1332 972L1308 972L1284 972L1260 972L1236 972L1212 972L1188 972L1164 972L1140 972M1692 900L1668 924M924 924L900 948M972 924L948 900L924 900L900 900L876 876L852 852L828 852M1620 900L1596 876M2436 804L2412 804L2388 828L2364 828L2340 828L2316 828L2292 828L2268 828L2244 828L2220 828L2196 828L2172 828L2148 828L2124 828L2100 828L2076 852L2052 852L2028 852L2004 852L1980 852L1956 876L1932 876L1908 900L1884 900L1860 900L1836 900L1812 900L1788 900L1764 900L1740 900L1716 900L1692 900L1668 900L1644 900L1620 900L1596 900L1572 900L1548 900L1524 900L1500 900L1476 900L1452 900L1428 924L1404 948L1380 948L1356 948L1332 948L1308 948L1284 948L1260 924L1236 924L1212 900L1188 900L1164 900L1140 900L1116 924L1092 924L1068 924L1044 924L1020 924L996 924L972 924L948 924L924 924L900 924L876 924L852 924L828 924" stroke="url(&quot;#SvgjsLinearGradient3761&quot;)" stroke-width="4"></path><path d="M822 924 a6 6 0 1 0 12 0 a6 6 0 1 0 -12 0zM1518 924 a6 6 0 1 0 12 0 a6 6 0 1 0 -12 0zM1110 876 a6 6 0 1 0 12 0 a6 6 0 1 0 -12 0zM1110 948 a6 6 0 1 0 12 0 a6 6 0 1 0 -12 0zM1014 900 a6 6 0 1 0 12 0 a6 6 0 1 0 -12 0zM654 948 a6 6 0 1 0 12 0 a6 6 0 1 0 -12 0zM1494 876 a6 6 0 1 0 12 0 a6 6 0 1 0 -12 0zM654 900 a6 6 0 1 0 12 0 a6 6 0 1 0 -12 0zM1014 972 a6 6 0 1 0 12 0 a6 6 0 1 0 -12 0zM2070 828 a6 6 0 1 0 12 0 a6 6 0 1 0 -12 0zM1302 924 a6 6 0 1 0 12 0 a6 6 0 1 0 -12 0zM1710 924 a6 6 0 1 0 12 0 a6 6 0 1 0 -12 0zM1542 948 a6 6 0 1 0 12 0 a6 6 0 1 0 -12 0zM1134 972 a6 6 0 1 0 12 0 a6 6 0 1 0 -12 0zM1662 924 a6 6 0 1 0 12 0 a6 6 0 1 0 -12 0zM894 948 a6 6 0 1 0 12 0 a6 6 0 1 0 -12 0zM822 852 a6 6 0 1 0 12 0 a6 6 0 1 0 -12 0zM1590 876 a6 6 0 1 0 12 0 a6 6 0 1 0 -12 0z" fill="url(&quot;#SvgjsLinearGradient3761&quot;)"></path><path d="M2076 324L2052 324M2196 324L2172 324M2124 324L2100 300L2076 300M2148 300L2124 300M2436 396L2412 396L2388 396L2364 396L2340 372L2316 348L2292 348L2268 324L2244 324L2220 324L2196 324L2172 300L2148 300L2124 324L2100 324L2076 324L2052 300L2028 300L2004 300L1980 300L1956 300L1932 300L1908 300L1884 300L1860 300L1836 300L1812 300L1788 300L1764 300L1740 300L1716 300L1692 276L1668 252L1644 252L1620 252L1596 252L1572 252L1548 252L1524 252L1500 252L1476 252L1452 228L1428 228L1404 228L1380 228L1356 228L1332 228L1308 204L1284 204" stroke="url(&quot;#SvgjsLinearGradient3761&quot;)" stroke-width="4"></path><path d="M1278 204 a6 6 0 1 0 12 0 a6 6 0 1 0 -12 0zM2046 324 a6 6 0 1 0 12 0 a6 6 0 1 0 -12 0zM2166 324 a6 6 0 1 0 12 0 a6 6 0 1 0 -12 0zM2070 300 a6 6 0 1 0 12 0 a6 6 0 1 0 -12 0zM2118 300 a6 6 0 1 0 12 0 a6 6 0 1 0 -12 0z" fill="url(&quot;#SvgjsLinearGradient3761&quot;)"></path><path d="M1596 972L1572 948M780 996L756 1020L732 1020L708 1020L684 1020L660 1020M900 1020L876 996L852 996L828 972L804 972L780 972L756 972L732 972L708 972L684 972L660 972M924 1020L900 1044L876 1044M1476 996L1452 1020L1428 1020L1404 1020L1380 1020L1356 1020L1332 1020L1308 1020L1284 1020L1260 1020L1236 1020L1212 1020L1188 1020M1092 996L1068 1020L1044 1020L1020 1020L996 1020L972 1020L948 1020L924 1044L900 1068L876 1068L852 1044L828 1044L804 1044L780 1020M2196 852L2172 876M972 996L948 972M1452 996L1428 972M1668 948L1644 972L1620 996L1596 996L1572 996L1548 996L1524 996L1500 1020L1476 1020M2268 876L2244 852M2124 852L2100 876M1524 972L1500 972L1476 972L1452 972L1428 948M1836 948L1812 924M2148 852L2124 876M1860 948L1836 924M1884 948L1860 924M2436 828L2412 828L2388 852L2364 852L2340 852L2316 852L2292 852L2268 876L2244 876L2220 852L2196 852L2172 852L2148 852L2124 852L2100 852L2076 876L2052 876L2028 876L2004 876L1980 876L1956 900L1932 900L1908 924L1884 948L1860 948L1836 948L1812 948L1788 948L1764 948L1740 948L1716 948L1692 948L1668 948L1644 948L1620 972L1596 972L1572 972L1548 972L1524 972L1500 996L1476 996L1452 996L1428 996L1404 996L1380 996L1356 996L1332 996L1308 996L1284 996L1260 996L1236 996L1212 996L1188 996L1164 996L1140 996L1116 996L1092 996L1068 996L1044 996L1020 996L996 996L972 996L948 996L924 1020L900 1020L876 1020L852 1020L828 996L804 996L780 996L756 996" stroke="url(&quot;#SvgjsLinearGradient3761&quot;)" stroke-width="4"></path><path d="M750 996 a6 6 0 1 0 12 0 a6 6 0 1 0 -12 0zM1566 948 a6 6 0 1 0 12 0 a6 6 0 1 0 -12 0zM654 1020 a6 6 0 1 0 12 0 a6 6 0 1 0 -12 0zM654 972 a6 6 0 1 0 12 0 a6 6 0 1 0 -12 0zM870 1044 a6 6 0 1 0 12 0 a6 6 0 1 0 -12 0zM1182 1020 a6 6 0 1 0 12 0 a6 6 0 1 0 -12 0zM774 1020 a6 6 0 1 0 12 0 a6 6 0 1 0 -12 0zM2166 876 a6 6 0 1 0 12 0 a6 6 0 1 0 -12 0zM942 972 a6 6 0 1 0 12 0 a6 6 0 1 0 -12 0zM1422 972 a6 6 0 1 0 12 0 a6 6 0 1 0 -12 0zM1470 1020 a6 6 0 1 0 12 0 a6 6 0 1 0 -12 0zM2238 852 a6 6 0 1 0 12 0 a6 6 0 1 0 -12 0zM2094 876 a6 6 0 1 0 12 0 a6 6 0 1 0 -12 0zM1422 948 a6 6 0 1 0 12 0 a6 6 0 1 0 -12 0zM1806 924 a6 6 0 1 0 12 0 a6 6 0 1 0 -12 0zM2118 876 a6 6 0 1 0 12 0 a6 6 0 1 0 -12 0zM1830 924 a6 6 0 1 0 12 0 a6 6 0 1 0 -12 0zM1854 924 a6 6 0 1 0 12 0 a6 6 0 1 0 -12 0z" fill="url(&quot;#SvgjsLinearGradient3761&quot;)"></path><path d="M1452 204L1428 180L1404 180L1380 180L1356 180L1332 180M1524 228L1500 204M1188 180L1164 180M828 156L804 180L780 180L756 180L732 180L708 180L684 180L660 180M804 156L780 132L756 132M1548 228L1524 204L1500 180L1476 156M876 156L852 132L828 132L804 132L780 108L756 108L732 108L708 108L684 84L660 84M852 156L828 180M708 156L684 132L660 108M732 156L708 132M900 156L876 132M2436 372L2412 372L2388 372L2364 372L2340 348L2316 324L2292 324L2268 300L2244 300L2220 300L2196 300L2172 276L2148 276L2124 276L2100 276L2076 276L2052 276L2028 276L2004 276L1980 276L1956 276L1932 276L1908 276L1884 276L1860 276L1836 276L1812 276L1788 276L1764 276L1740 276L1716 276L1692 252L1668 228L1644 228L1620 228L1596 228L1572 228L1548 228L1524 228L1500 228L1476 228L1452 204L1428 204L1404 204L1380 204L1356 204L1332 204L1308 180L1284 180L1260 180L1236 180L1212 180L1188 180L1164 156L1140 156L1116 156L1092 156L1068 156L1044 156L1020 156L996 156L972 156L948 156L924 156L900 156L876 156L852 156L828 156L804 156L780 156L756 156L732 156L708 156L684 156" stroke="url(&quot;#SvgjsLinearGradient3761&quot;)" stroke-width="4"></path><path d="M678 156 a6 6 0 1 0 12 0 a6 6 0 1 0 -12 0zM1326 180 a6 6 0 1 0 12 0 a6 6 0 1 0 -12 0zM1494 204 a6 6 0 1 0 12 0 a6 6 0 1 0 -12 0zM1158 180 a6 6 0 1 0 12 0 a6 6 0 1 0 -12 0zM654 180 a6 6 0 1 0 12 0 a6 6 0 1 0 -12 0zM750 132 a6 6 0 1 0 12 0 a6 6 0 1 0 -12 0zM1470 156 a6 6 0 1 0 12 0 a6 6 0 1 0 -12 0zM654 84 a6 6 0 1 0 12 0 a6 6 0 1 0 -12 0zM822 180 a6 6 0 1 0 12 0 a6 6 0 1 0 -12 0zM654 108 a6 6 0 1 0 12 0 a6 6 0 1 0 -12 0zM702 132 a6 6 0 1 0 12 0 a6 6 0 1 0 -12 0zM870 132 a6 6 0 1 0 12 0 a6 6 0 1 0 -12 0z" fill="url(&quot;#SvgjsLinearGradient3761&quot;)"></path><path d="M2076 900L2052 924L2028 924M1740 972L1716 996L1692 996L1668 996L1644 996M2004 900L1980 924M2148 924L2124 900M1788 972L1764 996L1740 996M2124 924L2100 924L2076 924M2436 852L2412 852L2388 876L2364 876L2340 876L2316 876L2292 876L2268 900L2244 900L2220 900L2196 924L2172 924L2148 924L2124 924L2100 900L2076 900L2052 900L2028 900L2004 900L1980 900L1956 924L1932 924L1908 948L1884 972L1860 972L1836 972L1812 972L1788 972L1764 972L1740 972L1716 972L1692 972" stroke="url(&quot;#SvgjsLinearGradient3761&quot;)" stroke-width="4"></path><path d="M1686 972 a6 6 0 1 0 12 0 a6 6 0 1 0 -12 0zM2022 924 a6 6 0 1 0 12 0 a6 6 0 1 0 -12 0zM1638 996 a6 6 0 1 0 12 0 a6 6 0 1 0 -12 0zM1974 924 a6 6 0 1 0 12 0 a6 6 0 1 0 -12 0zM2118 900 a6 6 0 1 0 12 0 a6 6 0 1 0 -12 0zM1734 996 a6 6 0 1 0 12 0 a6 6 0 1 0 -12 0zM2070 924 a6 6 0 1 0 12 0 a6 6 0 1 0 -12 0z" fill="url(&quot;#SvgjsLinearGradient3761&quot;)"></path><path d="M1596 204L1572 180L1548 180M1620 204L1596 180L1572 156L1548 156L1524 156M2436 348L2412 348L2388 348L2364 348L2340 324L2316 300L2292 300L2268 276L2244 276L2220 276L2196 276L2172 252L2148 252L2124 252L2100 252L2076 252L2052 252L2028 252L2004 252L1980 252L1956 252L1932 252L1908 252L1884 252L1860 252L1836 252L1812 252L1788 252L1764 252L1740 252L1716 252L1692 228L1668 204L1644 204L1620 204L1596 204L1572 204" stroke="url(&quot;#SvgjsLinearGradient3761&quot;)" stroke-width="4"></path><path d="M1566 204 a6 6 0 1 0 12 0 a6 6 0 1 0 -12 0zM1542 180 a6 6 0 1 0 12 0 a6 6 0 1 0 -12 0zM1518 156 a6 6 0 1 0 12 0 a6 6 0 1 0 -12 0z" fill="url(&quot;#SvgjsLinearGradient3761&quot;)"></path><path d="M2100 948L2076 972L2052 972L2028 972L2004 972L1980 972L1956 972M1884 996L1860 1020M1812 996L1788 996M1836 996L1812 1020L1788 1044L1764 1068M2316 900L2292 924L2268 948L2244 948M1788 1020L1764 1020M2196 948L2172 972M1644 1044L1620 1068L1596 1068M1692 1020L1668 1044M2364 900L2340 924L2316 924M2436 876L2412 876L2388 900L2364 900L2340 900L2316 900L2292 900L2268 924L2244 924L2220 924L2196 948L2172 948L2148 948L2124 948L2100 948L2076 948L2052 948L2028 948L2004 948L1980 948L1956 948L1932 948L1908 972L1884 996L1860 996L1836 996L1812 996L1788 1020L1764 1044L1740 1044L1716 1020L1692 1020L1668 1020L1644 1044L1620 1044L1596 1044L1572 1044L1548 1044L1524 1044L1500 1044L1476 1044L1452 1044" stroke="url(&quot;#SvgjsLinearGradient3761&quot;)" stroke-width="4"></path><path d="M1446 1044 a6 6 0 1 0 12 0 a6 6 0 1 0 -12 0zM1950 972 a6 6 0 1 0 12 0 a6 6 0 1 0 -12 0zM1854 1020 a6 6 0 1 0 12 0 a6 6 0 1 0 -12 0zM1782 996 a6 6 0 1 0 12 0 a6 6 0 1 0 -12 0zM1758 1068 a6 6 0 1 0 12 0 a6 6 0 1 0 -12 0zM2238 948 a6 6 0 1 0 12 0 a6 6 0 1 0 -12 0zM1758 1020 a6 6 0 1 0 12 0 a6 6 0 1 0 -12 0zM2166 972 a6 6 0 1 0 12 0 a6 6 0 1 0 -12 0zM1590 1068 a6 6 0 1 0 12 0 a6 6 0 1 0 -12 0zM1662 1044 a6 6 0 1 0 12 0 a6 6 0 1 0 -12 0zM2310 924 a6 6 0 1 0 12 0 a6 6 0 1 0 -12 0z" fill="url(&quot;#SvgjsLinearGradient3761&quot;)"></path><path d="M1740 228L1716 204L1692 180L1668 156M1548 132L1524 108L1500 108L1476 108L1452 108L1428 108M828 84L804 60L780 60L756 60L732 60L708 60L684 60L660 60M2172 228L2148 204L2124 204L2100 204L2076 204L2052 204L2028 204L2004 204L1980 204M1332 156L1308 132L1284 132L1260 132L1236 132L1212 132L1188 132L1164 108L1140 108M1116 132L1092 108L1068 108L1044 108L1020 108L996 108L972 108L948 108L924 108L900 84L876 60L852 60L828 60M1356 156L1332 132L1308 108L1284 108L1260 108L1236 108L1212 108L1188 108L1164 84L1140 84L1116 84L1092 84M1572 132L1548 108L1524 84L1500 84M2316 276L2292 276M1812 228L1788 204L1764 204L1740 204L1716 180L1692 156L1668 132L1644 132L1620 132L1596 108L1572 108L1548 84L1524 60L1500 60L1476 60L1452 60L1428 84L1404 84L1380 84L1356 84L1332 84L1308 84L1284 84L1260 84M2292 252L2268 228L2244 228L2220 228L2196 228L2172 204L2148 180L2124 180L2100 180L2076 180L2052 180L2028 180L2004 180M1380 156L1356 132L1332 108M1644 180L1620 180M1908 228L1884 204L1860 204L1836 204M852 108L828 108L804 108M2412 324L2388 300L2364 300M1404 156L1380 132L1356 108M2436 324L2412 324L2388 324L2364 324L2340 300L2316 276L2292 252L2268 252L2244 252L2220 252L2196 252L2172 228L2148 228L2124 228L2100 228L2076 228L2052 228L2028 228L2004 228L1980 228L1956 228L1932 228L1908 228L1884 228L1860 228L1836 228L1812 228L1788 228L1764 228L1740 228L1716 228L1692 204L1668 180L1644 180L1620 156L1596 132L1572 132L1548 132L1524 132L1500 132L1476 132L1452 156L1428 156L1404 156L1380 156L1356 156L1332 156L1308 156L1284 156L1260 156L1236 156L1212 156L1188 156L1164 132L1140 132L1116 132L1092 132L1068 132L1044 132L1020 132L996 132L972 132L948 132L924 132L900 108L876 108L852 108L828 84L804 84L780 84L756 84" stroke="url(&quot;#SvgjsLinearGradient3761&quot;)" stroke-width="4"></path><path d="M750 84 a6 6 0 1 0 12 0 a6 6 0 1 0 -12 0zM1662 156 a6 6 0 1 0 12 0 a6 6 0 1 0 -12 0zM1422 108 a6 6 0 1 0 12 0 a6 6 0 1 0 -12 0zM654 60 a6 6 0 1 0 12 0 a6 6 0 1 0 -12 0zM1974 204 a6 6 0 1 0 12 0 a6 6 0 1 0 -12 0zM1134 108 a6 6 0 1 0 12 0 a6 6 0 1 0 -12 0zM822 60 a6 6 0 1 0 12 0 a6 6 0 1 0 -12 0zM1086 84 a6 6 0 1 0 12 0 a6 6 0 1 0 -12 0zM1494 84 a6 6 0 1 0 12 0 a6 6 0 1 0 -12 0zM2286 276 a6 6 0 1 0 12 0 a6 6 0 1 0 -12 0zM1254 84 a6 6 0 1 0 12 0 a6 6 0 1 0 -12 0zM1998 180 a6 6 0 1 0 12 0 a6 6 0 1 0 -12 0zM1326 108 a6 6 0 1 0 12 0 a6 6 0 1 0 -12 0zM1614 180 a6 6 0 1 0 12 0 a6 6 0 1 0 -12 0zM1830 204 a6 6 0 1 0 12 0 a6 6 0 1 0 -12 0zM798 108 a6 6 0 1 0 12 0 a6 6 0 1 0 -12 0zM2358 300 a6 6 0 1 0 12 0 a6 6 0 1 0 -12 0zM1350 108 a6 6 0 1 0 12 0 a6 6 0 1 0 -12 0z" fill="url(&quot;#SvgjsLinearGradient3761&quot;)"></path></g></g><defs><mask id="SvgjsMask3759"><rect width="2400" height="1200" fill="#ffffff"></rect></mask><linearGradient x1="12.5%" y1="-25%" x2="87.5%" y2="125%" gradientUnits="userSpaceOnUse" id="SvgjsLinearGradient3760"><stop stop-color="rgba(14, 42, 71, 1)" offset="0.35"></stop><stop stop-color="rgba(14, 152, 165, 1)" offset="1"></stop></linearGradient><linearGradient x1="600" y1="600" x2="2400" y2="600" gradientUnits="userSpaceOnUse" id="SvgjsLinearGradient3761"><stop stop-color="#3a7cc3" offset="0"></stop><stop stop-color="rgba(45, 221, 17, 0.61)" offset="1"></stop></linearGradient><mask id="SvgjsMask3762"><rect width="2400" height="1200" fill="white"></rect><path d="M2049 636 a3 3 0 1 0 6 0 a3 3 0 1 0 -6 0zM2025 612 a3 3 0 1 0 6 0 a3 3 0 1 0 -6 0zM2265 612 a3 3 0 1 0 6 0 a3 3 0 1 0 -6 0zM2193 612 a3 3 0 1 0 6 0 a3 3 0 1 0 -6 0zM2193 660 a3 3 0 1 0 6 0 a3 3 0 1 0 -6 0z" fill="black"></path><path d="M2265 588 a3 3 0 1 0 6 0 a3 3 0 1 0 -6 0z" fill="black"></path><path d="M2289 660 a3 3 0 1 0 6 0 a3 3 0 1 0 -6 0z" fill="black"></path><path d="M993 564 a3 3 0 1 0 6 0 a3 3 0 1 0 -6 0zM1569 588 a3 3 0 1 0 6 0 a3 3 0 1 0 -6 0zM1065 588 a3 3 0 1 0 6 0 a3 3 0 1 0 -6 0zM2049 540 a3 3 0 1 0 6 0 a3 3 0 1 0 -6 0zM1329 516 a3 3 0 1 0 6 0 a3 3 0 1 0 -6 0zM1881 588 a3 3 0 1 0 6 0 a3 3 0 1 0 -6 0zM1761 540 a3 3 0 1 0 6 0 a3 3 0 1 0 -6 0zM1161 564 a3 3 0 1 0 6 0 a3 3 0 1 0 -6 0zM1521 516 a3 3 0 1 0 6 0 a3 3 0 1 0 -6 0zM2073 588 a3 3 0 1 0 6 0 a3 3 0 1 0 -6 0zM1281 660 a3 3 0 1 0 6 0 a3 3 0 1 0 -6 0zM1089 588 a3 3 0 1 0 6 0 a3 3 0 1 0 -6 0zM1305 588 a3 3 0 1 0 6 0 a3 3 0 1 0 -6 0zM1617 468 a3 3 0 1 0 6 0 a3 3 0 1 0 -6 0zM1977 516 a3 3 0 1 0 6 0 a3 3 0 1 0 -6 0zM1233 540 a3 3 0 1 0 6 0 a3 3 0 1 0 -6 0z" fill="black"></path><path d="M1977 684 a3 3 0 1 0 6 0 a3 3 0 1 0 -6 0zM2025 660 a3 3 0 1 0 6 0 a3 3 0 1 0 -6 0zM2073 660 a3 3 0 1 0 6 0 a3 3 0 1 0 -6 0zM2121 660 a3 3 0 1 0 6 0 a3 3 0 1 0 -6 0zM1929 660 a3 3 0 1 0 6 0 a3 3 0 1 0 -6 0z" fill="black"></path><path d="M1185 444 a3 3 0 1 0 6 0 a3 3 0 1 0 -6 0zM1737 444 a3 3 0 1 0 6 0 a3 3 0 1 0 -6 0zM1161 420 a3 3 0 1 0 6 0 a3 3 0 1 0 -6 0zM1593 420 a3 3 0 1 0 6 0 a3 3 0 1 0 -6 0zM1977 444 a3 3 0 1 0 6 0 a3 3 0 1 0 -6 0zM2193 516 a3 3 0 1 0 6 0 a3 3 0 1 0 -6 0zM1641 468 a3 3 0 1 0 6 0 a3 3 0 1 0 -6 0zM1833 492 a3 3 0 1 0 6 0 a3 3 0 1 0 -6 0zM2121 540 a3 3 0 1 0 6 0 a3 3 0 1 0 -6 0zM2049 492 a3 3 0 1 0 6 0 a3 3 0 1 0 -6 0zM1257 444 a3 3 0 1 0 6 0 a3 3 0 1 0 -6 0zM1329 420 a3 3 0 1 0 6 0 a3 3 0 1 0 -6 0zM2145 516 a3 3 0 1 0 6 0 a3 3 0 1 0 -6 0zM1881 444 a3 3 0 1 0 6 0 a3 3 0 1 0 -6 0z" fill="black"></path><path d="M1569 660 a3 3 0 1 0 6 0 a3 3 0 1 0 -6 0zM1833 708 a3 3 0 1 0 6 0 a3 3 0 1 0 -6 0zM1521 708 a3 3 0 1 0 6 0 a3 3 0 1 0 -6 0zM2313 708 a3 3 0 1 0 6 0 a3 3 0 1 0 -6 0zM1521 636 a3 3 0 1 0 6 0 a3 3 0 1 0 -6 0zM1617 636 a3 3 0 1 0 6 0 a3 3 0 1 0 -6 0zM1545 732 a3 3 0 1 0 6 0 a3 3 0 1 0 -6 0zM2385 708 a3 3 0 1 0 6 0 a3 3 0 1 0 -6 0zM1545 756 a3 3 0 1 0 6 0 a3 3 0 1 0 -6 0zM1761 756 a3 3 0 1 0 6 0 a3 3 0 1 0 -6 0z" fill="black"></path><path d="M729 300 a3 3 0 1 0 6 0 a3 3 0 1 0 -6 0zM1113 348 a3 3 0 1 0 6 0 a3 3 0 1 0 -6 0zM1833 372 a3 3 0 1 0 6 0 a3 3 0 1 0 -6 0zM657 372 a3 3 0 1 0 6 0 a3 3 0 1 0 -6 0zM1689 420 a3 3 0 1 0 6 0 a3 3 0 1 0 -6 0zM1929 444 a3 3 0 1 0 6 0 a3 3 0 1 0 -6 0zM705 276 a3 3 0 1 0 6 0 a3 3 0 1 0 -6 0zM1425 396 a3 3 0 1 0 6 0 a3 3 0 1 0 -6 0zM1737 396 a3 3 0 1 0 6 0 a3 3 0 1 0 -6 0zM1593 396 a3 3 0 1 0 6 0 a3 3 0 1 0 -6 0zM2289 492 a3 3 0 1 0 6 0 a3 3 0 1 0 -6 0zM1041 372 a3 3 0 1 0 6 0 a3 3 0 1 0 -6 0zM1137 276 a3 3 0 1 0 6 0 a3 3 0 1 0 -6 0zM1353 300 a3 3 0 1 0 6 0 a3 3 0 1 0 -6 0zM657 324 a3 3 0 1 0 6 0 a3 3 0 1 0 -6 0zM2073 444 a3 3 0 1 0 6 0 a3 3 0 1 0 -6 0zM1617 396 a3 3 0 1 0 6 0 a3 3 0 1 0 -6 0zM849 276 a3 3 0 1 0 6 0 a3 3 0 1 0 -6 0zM1569 348 a3 3 0 1 0 6 0 a3 3 0 1 0 -6 0z" fill="black"></path><path d="M1209 852 a3 3 0 1 0 6 0 a3 3 0 1 0 -6 0zM1329 780 a3 3 0 1 0 6 0 a3 3 0 1 0 -6 0zM1833 756 a3 3 0 1 0 6 0 a3 3 0 1 0 -6 0zM1617 780 a3 3 0 1 0 6 0 a3 3 0 1 0 -6 0zM1281 732 a3 3 0 1 0 6 0 a3 3 0 1 0 -6 0zM1401 852 a3 3 0 1 0 6 0 a3 3 0 1 0 -6 0zM1665 828 a3 3 0 1 0 6 0 a3 3 0 1 0 -6 0zM1929 756 a3 3 0 1 0 6 0 a3 3 0 1 0 -6 0zM2289 756 a3 3 0 1 0 6 0 a3 3 0 1 0 -6 0zM1857 756 a3 3 0 1 0 6 0 a3 3 0 1 0 -6 0zM1209 876 a3 3 0 1 0 6 0 a3 3 0 1 0 -6 0zM1233 828 a3 3 0 1 0 6 0 a3 3 0 1 0 -6 0zM1041 804 a3 3 0 1 0 6 0 a3 3 0 1 0 -6 0zM1569 852 a3 3 0 1 0 6 0 a3 3 0 1 0 -6 0z" fill="black"></path><path d="M2169 444 a3 3 0 1 0 6 0 a3 3 0 1 0 -6 0z" fill="black"></path><path d="M2049 420 a3 3 0 1 0 6 0 a3 3 0 1 0 -6 0zM2097 444 a3 3 0 1 0 6 0 a3 3 0 1 0 -6 0zM2121 444 a3 3 0 1 0 6 0 a3 3 0 1 0 -6 0z" fill="black"></path><path d="M1689 876 a3 3 0 1 0 6 0 a3 3 0 1 0 -6 0zM2049 828 a3 3 0 1 0 6 0 a3 3 0 1 0 -6 0zM1881 828 a3 3 0 1 0 6 0 a3 3 0 1 0 -6 0zM1713 852 a3 3 0 1 0 6 0 a3 3 0 1 0 -6 0zM1929 804 a3 3 0 1 0 6 0 a3 3 0 1 0 -6 0zM1881 804 a3 3 0 1 0 6 0 a3 3 0 1 0 -6 0zM1881 852 a3 3 0 1 0 6 0 a3 3 0 1 0 -6 0zM1809 852 a3 3 0 1 0 6 0 a3 3 0 1 0 -6 0zM2097 804 a3 3 0 1 0 6 0 a3 3 0 1 0 -6 0z" fill="black"></path><path d="M753 228 a3 3 0 1 0 6 0 a3 3 0 1 0 -6 0zM1977 372 a3 3 0 1 0 6 0 a3 3 0 1 0 -6 0zM897 252 a3 3 0 1 0 6 0 a3 3 0 1 0 -6 0zM2049 372 a3 3 0 1 0 6 0 a3 3 0 1 0 -6 0zM657 252 a3 3 0 1 0 6 0 a3 3 0 1 0 -6 0zM1017 204 a3 3 0 1 0 6 0 a3 3 0 1 0 -6 0zM1401 300 a3 3 0 1 0 6 0 a3 3 0 1 0 -6 0zM777 204 a3 3 0 1 0 6 0 a3 3 0 1 0 -6 0zM1209 276 a3 3 0 1 0 6 0 a3 3 0 1 0 -6 0zM1641 324 a3 3 0 1 0 6 0 a3 3 0 1 0 -6 0zM897 204 a3 3 0 1 0 6 0 a3 3 0 1 0 -6 0zM873 228 a3 3 0 1 0 6 0 a3 3 0 1 0 -6 0zM1425 300 a3 3 0 1 0 6 0 a3 3 0 1 0 -6 0zM2145 372 a3 3 0 1 0 6 0 a3 3 0 1 0 -6 0zM1473 324 a3 3 0 1 0 6 0 a3 3 0 1 0 -6 0zM2169 372 a3 3 0 1 0 6 0 a3 3 0 1 0 -6 0zM801 252 a3 3 0 1 0 6 0 a3 3 0 1 0 -6 0zM1665 348 a3 3 0 1 0 6 0 a3 3 0 1 0 -6 0z" fill="black"></path><path d="M2169 804 a3 3 0 1 0 6 0 a3 3 0 1 0 -6 0z" fill="black"></path><path d="M1089 180 a3 3 0 1 0 6 0 a3 3 0 1 0 -6 0zM1113 180 a3 3 0 1 0 6 0 a3 3 0 1 0 -6 0zM2217 372 a3 3 0 1 0 6 0 a3 3 0 1 0 -6 0zM1953 324 a3 3 0 1 0 6 0 a3 3 0 1 0 -6 0zM2145 324 a3 3 0 1 0 6 0 a3 3 0 1 0 -6 0zM2001 372 a3 3 0 1 0 6 0 a3 3 0 1 0 -6 0zM2265 372 a3 3 0 1 0 6 0 a3 3 0 1 0 -6 0z" fill="black"></path><path d="M825 924 a3 3 0 1 0 6 0 a3 3 0 1 0 -6 0zM1521 924 a3 3 0 1 0 6 0 a3 3 0 1 0 -6 0zM1113 876 a3 3 0 1 0 6 0 a3 3 0 1 0 -6 0zM1113 948 a3 3 0 1 0 6 0 a3 3 0 1 0 -6 0zM1017 900 a3 3 0 1 0 6 0 a3 3 0 1 0 -6 0zM657 948 a3 3 0 1 0 6 0 a3 3 0 1 0 -6 0zM1497 876 a3 3 0 1 0 6 0 a3 3 0 1 0 -6 0zM657 900 a3 3 0 1 0 6 0 a3 3 0 1 0 -6 0zM1017 972 a3 3 0 1 0 6 0 a3 3 0 1 0 -6 0zM2073 828 a3 3 0 1 0 6 0 a3 3 0 1 0 -6 0zM1305 924 a3 3 0 1 0 6 0 a3 3 0 1 0 -6 0zM1713 924 a3 3 0 1 0 6 0 a3 3 0 1 0 -6 0zM1545 948 a3 3 0 1 0 6 0 a3 3 0 1 0 -6 0zM1137 972 a3 3 0 1 0 6 0 a3 3 0 1 0 -6 0zM1665 924 a3 3 0 1 0 6 0 a3 3 0 1 0 -6 0zM897 948 a3 3 0 1 0 6 0 a3 3 0 1 0 -6 0zM825 852 a3 3 0 1 0 6 0 a3 3 0 1 0 -6 0zM1593 876 a3 3 0 1 0 6 0 a3 3 0 1 0 -6 0z" fill="black"></path><path d="M1281 204 a3 3 0 1 0 6 0 a3 3 0 1 0 -6 0zM2049 324 a3 3 0 1 0 6 0 a3 3 0 1 0 -6 0zM2169 324 a3 3 0 1 0 6 0 a3 3 0 1 0 -6 0zM2073 300 a3 3 0 1 0 6 0 a3 3 0 1 0 -6 0zM2121 300 a3 3 0 1 0 6 0 a3 3 0 1 0 -6 0z" fill="black"></path><path d="M753 996 a3 3 0 1 0 6 0 a3 3 0 1 0 -6 0zM1569 948 a3 3 0 1 0 6 0 a3 3 0 1 0 -6 0zM657 1020 a3 3 0 1 0 6 0 a3 3 0 1 0 -6 0zM657 972 a3 3 0 1 0 6 0 a3 3 0 1 0 -6 0zM873 1044 a3 3 0 1 0 6 0 a3 3 0 1 0 -6 0zM1185 1020 a3 3 0 1 0 6 0 a3 3 0 1 0 -6 0zM777 1020 a3 3 0 1 0 6 0 a3 3 0 1 0 -6 0zM2169 876 a3 3 0 1 0 6 0 a3 3 0 1 0 -6 0zM945 972 a3 3 0 1 0 6 0 a3 3 0 1 0 -6 0zM1425 972 a3 3 0 1 0 6 0 a3 3 0 1 0 -6 0zM1473 1020 a3 3 0 1 0 6 0 a3 3 0 1 0 -6 0zM2241 852 a3 3 0 1 0 6 0 a3 3 0 1 0 -6 0zM2097 876 a3 3 0 1 0 6 0 a3 3 0 1 0 -6 0zM1425 948 a3 3 0 1 0 6 0 a3 3 0 1 0 -6 0zM1809 924 a3 3 0 1 0 6 0 a3 3 0 1 0 -6 0zM2121 876 a3 3 0 1 0 6 0 a3 3 0 1 0 -6 0zM1833 924 a3 3 0 1 0 6 0 a3 3 0 1 0 -6 0zM1857 924 a3 3 0 1 0 6 0 a3 3 0 1 0 -6 0z" fill="black"></path><path d="M681 156 a3 3 0 1 0 6 0 a3 3 0 1 0 -6 0zM1329 180 a3 3 0 1 0 6 0 a3 3 0 1 0 -6 0zM1497 204 a3 3 0 1 0 6 0 a3 3 0 1 0 -6 0zM1161 180 a3 3 0 1 0 6 0 a3 3 0 1 0 -6 0zM657 180 a3 3 0 1 0 6 0 a3 3 0 1 0 -6 0zM753 132 a3 3 0 1 0 6 0 a3 3 0 1 0 -6 0zM1473 156 a3 3 0 1 0 6 0 a3 3 0 1 0 -6 0zM657 84 a3 3 0 1 0 6 0 a3 3 0 1 0 -6 0zM825 180 a3 3 0 1 0 6 0 a3 3 0 1 0 -6 0zM657 108 a3 3 0 1 0 6 0 a3 3 0 1 0 -6 0zM705 132 a3 3 0 1 0 6 0 a3 3 0 1 0 -6 0zM873 132 a3 3 0 1 0 6 0 a3 3 0 1 0 -6 0z" fill="black"></path><path d="M1689 972 a3 3 0 1 0 6 0 a3 3 0 1 0 -6 0zM2025 924 a3 3 0 1 0 6 0 a3 3 0 1 0 -6 0zM1641 996 a3 3 0 1 0 6 0 a3 3 0 1 0 -6 0zM1977 924 a3 3 0 1 0 6 0 a3 3 0 1 0 -6 0zM2121 900 a3 3 0 1 0 6 0 a3 3 0 1 0 -6 0zM1737 996 a3 3 0 1 0 6 0 a3 3 0 1 0 -6 0zM2073 924 a3 3 0 1 0 6 0 a3 3 0 1 0 -6 0z" fill="black"></path><path d="M1569 204 a3 3 0 1 0 6 0 a3 3 0 1 0 -6 0zM1545 180 a3 3 0 1 0 6 0 a3 3 0 1 0 -6 0zM1521 156 a3 3 0 1 0 6 0 a3 3 0 1 0 -6 0z" fill="black"></path><path d="M1449 1044 a3 3 0 1 0 6 0 a3 3 0 1 0 -6 0zM1953 972 a3 3 0 1 0 6 0 a3 3 0 1 0 -6 0zM1857 1020 a3 3 0 1 0 6 0 a3 3 0 1 0 -6 0zM1785 996 a3 3 0 1 0 6 0 a3 3 0 1 0 -6 0zM1761 1068 a3 3 0 1 0 6 0 a3 3 0 1 0 -6 0zM2241 948 a3 3 0 1 0 6 0 a3 3 0 1 0 -6 0zM1761 1020 a3 3 0 1 0 6 0 a3 3 0 1 0 -6 0zM2169 972 a3 3 0 1 0 6 0 a3 3 0 1 0 -6 0zM1593 1068 a3 3 0 1 0 6 0 a3 3 0 1 0 -6 0zM1665 1044 a3 3 0 1 0 6 0 a3 3 0 1 0 -6 0zM2313 924 a3 3 0 1 0 6 0 a3 3 0 1 0 -6 0z" fill="black"></path><path d="M753 84 a3 3 0 1 0 6 0 a3 3 0 1 0 -6 0zM1665 156 a3 3 0 1 0 6 0 a3 3 0 1 0 -6 0zM1425 108 a3 3 0 1 0 6 0 a3 3 0 1 0 -6 0zM657 60 a3 3 0 1 0 6 0 a3 3 0 1 0 -6 0zM1977 204 a3 3 0 1 0 6 0 a3 3 0 1 0 -6 0zM1137 108 a3 3 0 1 0 6 0 a3 3 0 1 0 -6 0zM825 60 a3 3 0 1 0 6 0 a3 3 0 1 0 -6 0zM1089 84 a3 3 0 1 0 6 0 a3 3 0 1 0 -6 0zM1497 84 a3 3 0 1 0 6 0 a3 3 0 1 0 -6 0zM2289 276 a3 3 0 1 0 6 0 a3 3 0 1 0 -6 0zM1257 84 a3 3 0 1 0 6 0 a3 3 0 1 0 -6 0zM2001 180 a3 3 0 1 0 6 0 a3 3 0 1 0 -6 0zM1329 108 a3 3 0 1 0 6 0 a3 3 0 1 0 -6 0zM1617 180 a3 3 0 1 0 6 0 a3 3 0 1 0 -6 0zM1833 204 a3 3 0 1 0 6 0 a3 3 0 1 0 -6 0zM801 108 a3 3 0 1 0 6 0 a3 3 0 1 0 -6 0zM2361 300 a3 3 0 1 0 6 0 a3 3 0 1 0 -6 0zM1353 108 a3 3 0 1 0 6 0 a3 3 0 1 0 -6 0z" fill="black"></path></mask></defs></svg>